HIERARCHY
ROOT Hips
{
	OFFSET -3.958830 18.904000 13.208200
	CHANNELS 6 Xposition Yposition Zposition Zrotation Yrotation Xrotation 
	JOINT LHipJoint
	{
		OFFSET 0.000000 0.000000 0.000000
		CHANNELS 3 Zrotation Yrotation Xrotation
		JOINT LeftUpLeg
		{
			OFFSET 1.800000 -1.400000 0.085000
			CHANNELS 3 Zrotation Yrotation Xrotation
			JOINT LeftLeg
			{
				OFFSET 2.215000 -6.000000 0.000000
				CHANNELS 3 Zrotation Yrotation Xrotation
				JOINT LeftFoot
				{
					OFFSET 2.500000 -6.900000 0.000000
					CHANNELS 3 Zrotation Yrotation Xrotation
					JOINT LeftToeBase
					{
						OFFSET 0.200000 -0.500000 1.950000
						CHANNELS 3 Zrotation Yrotation Xrotation
						End Site
						{
							OFFSET 0.000000 0.000000 0.000000
						}
					}
				}
			}
		}
	}
	JOINT RHipJoint
	{
		OFFSET 0.000000 0.000000 0.000000
		CHANNELS 3 Zrotation Yrotation Xrotation
		JOINT RightUpLeg
		{
			OFFSET -1.800000 -1.400000 0.085000
			CHANNELS 3 Zrotation Yrotation Xrotation
			JOINT RightLeg
			{
				OFFSET -2.215000 -6.000000 0.000000
				CHANNELS 3 Zrotation Yrotation Xrotation
				JOINT RightFoot
				{
					OFFSET -2.500000 -6.900000 0.000000
					CHANNELS 3 Zrotation Yrotation Xrotation
					JOINT RightToeBase
					{
						OFFSET -0.200000 -0.500000 1.950000
						CHANNELS 3 Zrotation Yrotation Xrotation
						End Site
						{
							OFFSET 0.000000 0.000000 0.000000
						}
					}
				}
			}
		}
	}
	JOINT LowerBack
	{
		OFFSET 0.000000 0.000000 0.000000
		CHANNELS 3 Zrotation Yrotation Xrotation
		JOINT Spine
		{
			OFFSET -0.087000 1.940000 -0.288900
			CHANNELS 3 Zrotation Yrotation Xrotation
			JOINT Spine1
			{
				OFFSET 0.000000 1.950000 0.060000
				CHANNELS 3 Zrotation Yrotation Xrotation
				JOINT Neck
				{
					OFFSET 0.000000 0.000000 0.000000
					CHANNELS 3 Zrotation Yrotation Xrotation
					JOINT Neck1
					{
						OFFSET 0.000000 1.600000 0.340000
						CHANNELS 3 Zrotation Yrotation Xrotation
						JOINT Head
						{
							OFFSET 0.000000 1.667000 -0.240000
							CHANNELS 3 Zrotation Yrotation Xrotation
							End Site
							{
								OFFSET 0.000000 0.000000 0.000000
							}
						}
					}
				}
				JOINT LeftShoulder
				{
					OFFSET 0.000000 0.000000 0.000000
					CHANNELS 3 Zrotation Yrotation Xrotation
					JOINT LeftArm
					{
						OFFSET 2.700000 1.550000 -0.730000
						CHANNELS 3 Zrotation Yrotation Xrotation
						JOINT LeftForeArm
						{
							OFFSET 5.450000 0.000000 0.000000
							CHANNELS 3 Zrotation Yrotation Xrotation
							JOINT LeftHand
							{
								OFFSET 3.450000 0.000000 0.000000
								CHANNELS 3 Zrotation Yrotation Xrotation
								JOINT LeftHandIndex1
								{
									OFFSET 0.750000 0.000000 0.000000
									CHANNELS 3 Zrotation Yrotation Xrotation
									End Site
									{
										OFFSET 0.000000 0.000000 0.000000
									}
								}
							}
						}
					}
				}
				JOINT RightShoulder
				{
					OFFSET 0.000000 0.000000 0.000000
					CHANNELS 3 Zrotation Yrotation Xrotation
					JOINT RightArm
					{
						OFFSET -2.700000 1.550000 -0.730000
						CHANNELS 3 Zrotation Yrotation Xrotation
						JOINT RightForeArm
						{
							OFFSET -5.450000 0.000000 0.000000
							CHANNELS 3 Zrotation Yrotation Xrotation
							JOINT RightHand
							{
								OFFSET -3.450000 0.000000 0.000000
								CHANNELS 3 Zrotation Yrotation Xrotation
								JOINT RightHandIndex1
								{
									OFFSET -0.750000 0.000000 0.000000
									CHANNELS 3 Zrotation Yrotation Xrotation
									End Site
									{
										OFFSET 0.000000 0.000000 0.000000
									}
								}
							}
						}
					}
				}
			}
		}
	}
}
MOTION
Frames: 14
Frame Time: 0.016667
-1.233280 16.887490 -0.634280 -2.329456 -2.822590 -14.495844 -14.898170 13.733560 2.683294 15.176167 1.075327 4.964824 2.519444 4.366299 4.823756 -1.158768 5.766454 3.034863 -0.628020 -1.138820 -0.746840 18.348487 -11.479593 2.605964 -14.185876 -1.644956 1.808190 3.761060 -6.460529 7.777574 -0.491709 -4.736780 3.106221 -0.418010 1.146680 0.202100 -4.017451 -1.527186 -7.413469 12.089553 -2.757160 25.499227 -8.201181 0.325701 20.308236 3.216078 -5.012119 -13.236867 -10.890471 3.267598 35.630898 -0.728890 0.224610 -28.779180 -13.801955 -12.028097 7.563524 -51.115997 -12.529223 -0.149416 153.996936 -52.763560 -153.855386 -4.218204 2.337092 1.410930 0.310630 -0.255010 0.173690 8.272840 15.897132 11.459065 65.585936 12.393548 -12.014496 -152.693423 65.037106 -160.787356 1.393774 -0.905356 -1.118010 1.051560 1.025130 -0.260860 
-1.244430 16.879530 -0.630840 -2.876723 -3.963311 -14.157844 -14.704983 13.458147 2.622415 15.710658 0.938383 5.320111 1.582935 4.540571 5.002266 -1.177599 5.818230 3.019639 -0.611250 -1.115400 -0.758170 18.560477 -11.685535 2.619396 -13.276632 -1.742620 1.145890 3.285941 -6.358488 7.924947 -0.493515 -4.703887 3.118493 -0.392520 1.164270 0.190970 -4.571197 -0.738600 -7.289726 15.791407 -4.269593 24.489941 -11.911706 -0.774687 20.764021 3.598879 -6.079500 -13.132475 -12.753681 4.308999 34.740660 -0.179810 0.121830 -29.117430 -13.702372 -12.050832 7.352607 -50.508382 -13.501691 -0.227893 151.567012 -51.947595 -149.126145 -4.239463 2.302361 1.405820 0.308170 -0.267000 0.188170 7.490899 15.691398 11.567942 66.712075 12.923278 -11.464354 -155.868294 66.544902 -165.283317 1.353607 -0.927817 -1.125750 1.078240 1.026480 -0.248890 
-1.254060 16.871940 -0.628050 -3.369288 -5.084253 -13.675841 -14.564075 13.254775 2.567747 16.228244 0.796886 5.293970 0.597685 4.736714 5.355838 -1.200178 5.865758 3.000597 -0.595180 -1.090740 -0.770940 18.719624 -11.839226 2.609169 -12.312798 -1.807471 0.367076 2.713492 -6.233864 8.242825 -0.486285 -4.640069 3.138434 -0.366530 1.180700 0.181790 -4.981867 -0.146497 -7.158192 19.046998 -5.692919 23.383440 -15.318324 -1.853712 20.856245 4.058370 -7.185732 -12.992518 -14.827465 5.386839 33.846183 0.220830 -0.013330 -29.451430 -14.398934 -12.085168 7.027326 -49.516793 -14.389657 -0.320461 149.216220 -51.336033 -144.337662 -4.266408 2.258033 1.397960 0.306310 -0.277960 0.200430 7.310041 15.596687 11.719479 67.042635 12.912987 -11.099505 -160.484322 67.875701 -171.401528 1.306141 -0.933822 -1.130200 1.104780 1.030910 -0.235650 
-1.271380 16.863110 -0.628600 -3.622330 -6.096665 -13.208429 -14.478254 13.141130 2.519296 16.700097 0.678858 4.934610 -0.401776 4.970008 6.045820 -1.225672 5.915702 2.975266 -0.569740 -1.058990 -0.775710 18.819013 -11.939699 2.583615 -11.343321 -1.832317 -0.438158 1.966859 -6.069210 8.699594 -0.476163 -4.554490 3.160004 -0.336400 1.192570 0.179580 -5.233828 0.214973 -7.039680 21.276547 -6.844424 22.415539 -18.079739 -2.748504 20.820428 4.449381 -8.054638 -12.901528 -16.571895 6.447467 32.996666 0.615820 -0.028730 -29.520640 -15.310301 -12.353575 6.699525 -48.239863 -15.497724 -0.427435 146.643776 -51.022444 -139.281341 -4.291952 2.214652 1.390600 0.304510 -0.283810 0.216990 7.426668 15.708077 11.927939 67.103212 12.652868 -10.848670 -165.163503 68.770091 -177.450959 1.263843 -0.932792 -1.130480 1.123740 1.028860 -0.223740 
-1.293240 16.859100 -0.632320 -3.742665 -7.173477 -12.894298 -14.435859 13.098140 2.489475 17.303786 0.601656 4.412081 -1.542198 5.297175 6.994684 -1.249469 5.991647 2.927600 -0.538550 -1.013620 -0.770740 18.870524 -11.979208 2.555359 -10.482660 -1.868535 -0.973270 1.164084 -5.894939 9.100507 -0.472313 -4.471472 3.179245 -0.301520 1.186980 0.173640 -5.357902 0.356085 -6.952967 22.640497 -7.639214 21.642024 -20.039025 -3.350713 21.012492 4.882265 -8.636913 -12.918509 -18.011024 7.350415 32.722669 0.763930 0.005730 -29.728650 -16.532855 -13.247040 6.451978 -46.724668 -16.981738 -0.712576 143.434012 -51.410047 -133.879084 -4.317869 2.146833 1.387030 0.297250 -0.280540 0.223700 7.769149 16.335680 12.272814 66.621986 12.109098 -11.093650 -168.872265 69.377496 177.543065 1.230366 -0.913813 -1.125340 1.140000 1.025260 -0.218460 
-1.319170 16.862570 -0.635130 -3.771503 -8.406169 -12.940026 -14.410342 13.080182 2.470608 18.011702 0.550739 4.202568 -2.679939 5.713441 8.200497 -1.262469 6.127296 2.852266 -0.488730 -0.950750 -0.746120 18.903985 -11.991664 2.533806 -9.718916 -1.952588 -1.114347 0.345559 -5.741646 9.402851 -0.496562 -4.413489 3.182796 -0.262160 1.163050 0.180250 -5.434610 0.408077 -6.885202 23.496178 -8.306951 21.205752 -21.476983 -3.807867 21.657389 5.319331 -9.129595 -13.099636 -19.504780 8.248257 32.896818 0.687670 0.039480 -30.637870 -17.614728 -14.761963 6.469249 -45.158343 -18.436727 -1.560687 139.336331 -51.827517 -127.607517 -4.341005 2.044689 1.402710 0.277240 -0.252920 0.232370 8.035371 17.570612 12.698675 65.857065 11.805830 -11.816743 -171.485533 70.099993 173.678923 1.206273 -0.883790 -1.110930 1.153130 1.012530 -0.217480 
-1.347530 16.863490 -0.634840 -3.962901 -9.473917 -13.061069 -14.400685 13.066864 2.459017 18.946702 0.461300 4.026319 -3.688383 6.150571 9.424508 -1.273709 6.299468 2.751672 -0.435170 -0.884230 -0.711130 18.925092 -11.971566 2.516206 -8.880666 -2.058024 -1.055418 -0.291356 -5.634431 9.699995 -0.529919 -4.377688 3.166616 -0.220250 1.127800 0.198120 -5.476528 0.402562 -6.829671 24.219841 -8.832244 20.699039 -22.532339 -4.163932 22.589260 5.781657 -9.347022 -13.255308 -20.519288 9.013510 33.307395 0.323350 0.167050 -31.559180 -18.429359 -16.327801 6.504683 -43.796840 -20.330284 -2.334058 134.276844 -52.315952 -119.923091 -4.375475 1.908301 1.419640 0.257380 -0.216690 0.232510 8.001686 18.657509 13.047161 65.348341 11.740448 -12.439985 -172.589567 70.782421 171.834479 1.188540 -0.871188 -1.089960 1.154550 1.002160 -0.221790 
-1.379270 16.862960 -0.631920 -4.122666 -10.424080 -13.318109 -14.404290 13.070557 2.471233 19.840291 0.350917 4.102871 -4.501689 6.548908 10.397733 -1.285307 6.484397 2.646171 -0.373430 -0.809800 -0.664510 18.932956 -11.937938 2.471913 -8.154334 -2.177840 -1.034095 -0.830500 -5.583870 10.438725 -0.559743 -4.351496 3.148589 -0.170730 1.085260 0.209830 -5.484456 0.325026 -6.778830 24.589503 -9.225471 20.177358 -23.176512 -4.409696 23.860777 6.122364 -9.362636 -13.528417 -21.281786 9.614637 33.968712 -0.015530 0.220500 -32.269520 -18.655308 -18.186218 6.711308 -42.634637 -22.519618 -3.341869 128.193612 -52.842110 -110.942901 -4.414507 1.703834 1.438590 0.237700 -0.180270 0.230980 7.644121 19.910939 13.440231 65.168691 11.744465 -13.138093 -172.208327 71.287477 171.730880 1.171274 -0.874953 -1.071960 1.157740 0.985890 -0.233670 
-1.410350 16.860320 -0.630320 -4.423051 -11.233464 -13.592685 -14.410649 13.096627 2.476584 20.642915 0.208269 4.240626 -4.797532 6.813775 11.240470 -1.306931 6.625050 2.559646 -0.318040 -0.737430 -0.617200 18.935042 -11.906202 2.426745 -7.414034 -2.292828 -1.106366 -1.161240 -5.595987 11.446441 -0.585646 -4.330115 3.131870 -0.121700 1.041580 0.213340 -5.480211 0.218762 -6.730063 24.924925 -9.587956 19.708910 -23.576491 -4.652018 25.113765 6.346500 -9.170732 -13.821509 -21.692956 10.007721 34.840284 -0.512350 0.266180 -33.012250 -18.571639 -20.120571 7.000600 -41.442161 -24.669982 -4.735241 121.661996 -53.549644 -101.477152 -4.449778 1.446015 1.459770 0.219600 -0.143310 0.225840 7.179051 21.088583 13.793248 65.492765 11.740519 -13.886415 -169.916710 71.895487 174.092600 1.159636 -0.890245 -1.060690 1.167420 0.969100 -0.248580 
-1.443310 16.849200 -0.628740 -4.633644 -12.223451 -13.773909 -14.418972 13.147556 2.485407 21.275706 0.067849 4.239566 -4.984703 7.043953 12.120630 -1.331483 6.743657 2.486628 -0.271520 -0.674200 -0.573460 18.929048 -11.889355 2.367526 -6.750391 -2.355311 -1.422449 -1.640960 -5.597818 12.886132 -0.600205 -4.305655 3.119486 -0.076470 1.006680 0.210680 -5.459502 0.088503 -6.681063 24.942144 -9.897929 19.378231 -23.875922 -4.855017 26.037076 6.423484 -8.918238 -14.065715 -21.840903 10.404567 35.415242 -0.919850 0.447030 -33.611370 -18.182766 -21.697900 7.225641 -40.434529 -26.497867 -6.375328 115.297053 -54.209741 -92.320978 -4.470048 1.224768 1.476670 0.206870 -0.113430 0.220570 6.632441 21.940816 14.011532 66.119342 11.897346 -14.374119 -168.337587 72.674504 175.685575 1.147784 -0.899522 -1.056210 1.182700 0.953560 -0.263370 
-1.478520 16.826830 -0.626680 -4.815990 -13.111704 -13.785658 -14.435954 13.208741 2.495225 21.805848 -0.083955 4.213325 -5.041333 7.213212 12.832023 -1.347257 6.843205 2.427935 -0.231690 -0.623270 -0.535170 18.915172 -11.859319 2.301496 -6.097079 -2.337583 -2.072794 -2.009298 -5.609778 14.507797 -0.601879 -4.280818 3.106636 -0.039070 0.981820 0.212400 -5.415817 -0.079205 -6.634951 24.789934 -10.223087 19.037882 -24.156400 -5.138187 26.547587 6.377363 -8.686815 -14.161621 -21.758433 10.714917 35.424631 -1.296830 0.727170 -33.749860 -17.410637 -22.558694 7.221277 -39.865273 -28.069391 -7.687225 109.481724 -54.178610 -83.925906 -4.467317 1.148449 1.480910 0.202690 -0.094200 0.219280 5.869500 22.123949 14.019389 67.368171 12.284626 -14.342560 -167.328439 73.522154 176.847218 1.140195 -0.928994 -1.050150 1.187500 0.936820 -0.274370 
-1.515380 16.806470 -0.625710 -4.913954 -14.088541 -13.938111 -14.460857 13.285713 2.516654 22.158733 -0.225462 4.624413 -4.978606 7.328679 13.255631 -1.352701 6.931606 2.375650 -0.187540 -0.565410 -0.489220 18.894269 -11.801190 2.246104 -5.453508 -2.306053 -2.662712 -2.456050 -5.578335 15.890303 -0.612183 -4.249709 3.092391 -0.002890 0.945700 0.213030 -5.351231 -0.317709 -6.611344 24.184999 -10.473875 18.917468 -23.968265 -5.409172 27.085274 6.126331 -8.362604 -14.307239 -21.598556 11.076316 35.859989 -1.668910 1.105840 -34.117400 -16.508319 -23.674143 7.351448 -39.023493 -29.306449 -9.414734 102.960099 -53.856453 -75.361888 -4.460911 1.172524 1.491910 0.189870 -0.065530 0.215270 5.375426 22.527479 14.030405 68.296733 12.683462 -14.415619 -164.441944 74.432633 -179.861828 1.148942 -0.960826 -1.040180 1.187940 0.914370 -0.287060 
-1.553680 16.785810 -0.624510 -5.159415 -15.017484 -14.071547 -14.497767 13.367212 2.535260 22.737946 -0.412430 4.842614 -4.886449 7.457086 13.775965 -1.362226 7.036530 2.315747 -0.142590 -0.511760 -0.440900 18.865656 -11.708297 2.202912 -4.668892 -2.279777 -3.092541 -2.895721 -5.546162 17.139570 -0.627104 -4.239279 3.072283 0.032400 0.910690 0.218470 -5.258454 -0.614755 -6.604266 23.512426 -10.746557 18.932175 -23.480746 -5.768556 27.500196 5.776133 -8.063137 -14.345168 -21.371163 11.307787 36.042282 -2.285920 1.450960 -34.366730 -15.451837 -24.532454 7.335941 -38.130031 -30.599379 -10.656051 95.443894 -53.024693 -66.583859 -4.461985 1.300767 1.501420 0.181970 -0.040350 0.212140 4.907084 22.655878 13.943807 69.242093 13.029834 -14.290390 -161.071358 75.016901 -176.034768 1.161240 -1.001478 -1.030640 1.182420 0.891140 -0.302200 
-1.593880 16.771920 -0.621150 -5.474554 -16.026972 -14.226044 -14.534192 13.442636 2.552011 23.377958 -0.627973 5.072532 -4.735783 7.571439 14.275729 -1.371162 7.155053 2.258773 -0.110260 -0.479650 -0.399120 18.838842 -11.599058 2.184557 -3.775983 -2.265438 -3.277749 -3.403827 -5.483983 18.005117 -0.648104 -4.234278 3.056313 0.055120 0.888460 0.229700 -5.169645 -0.916099 -6.616468 22.869743 -10.933851 18.992615 -22.836122 -6.053046 27.901512 5.399669 -7.679116 -14.482364 -21.062400 11.495887 36.545346 -2.936340 1.809250 -34.413860 -14.720234 -25.593054 7.406614 -36.789026 -31.725475 -11.745723 88.036003 -51.218360 -58.326361 -4.491606 1.471871 1.517750 0.180130 -0.016720 0.211930 4.816118 22.956956 13.988021 70.168008 13.010265 -14.382801 -157.521360 75.063583 -172.168328 1.175817 -1.025374 -1.028220 1.181270 0.874840 -0.317410 
